<?xml version="1.0"?>
<svg xmlns="http://www.w3.org/2000/svg" xmlns:xlink="http://www.w3.org/1999/xlink" version="1.1" xml:space="preserve">
  <defs>

    <symbol id="loader" width="100%" height="100%" viewBox="22 22 44 44">
      <circle cx="44" cy="44" r="20.2" fill="none" stroke="currentColor" stroke-width="4"></circle>
    </symbol>

    <symbol id="sofa" width="100%" height="100%" viewBox="0 0 32 32">
      <path fill-rule="evenodd" clip-rule="evenodd" d="M15.9199 4.33325H16.0807C19 4.33323 21.2968 4.33322 23.0584 4.57652C24.8589 4.82518 26.2918 5.35023 27.3201 6.55494C27.4397 6.69509 27.5531 6.84039 27.6601 6.99043C28.5794 8.28017 28.7413 9.79761 28.5458 11.6046C28.371 13.2207 27.8906 15.2211 27.2687 17.7157C29.0075 18.0028 30.3337 19.5131 30.3337 21.3333C30.3337 23.0116 29.206 24.4266 27.667 24.8619V26.6666C27.667 27.2189 27.2193 27.6666 26.667 27.6666C26.1147 27.6666 25.667 27.2189 25.667 26.6666V24.9999H6.33366V26.6666C6.33366 27.2189 5.88594 27.6666 5.33366 27.6666C4.78137 27.6666 4.33366 27.2189 4.33366 26.6666L4.33366 24.8619C2.79466 24.4266 1.66699 23.0116 1.66699 21.3333C1.66699 19.5131 2.99319 18.0028 4.73198 17.7157C4.11001 15.2211 3.6296 13.2207 3.45482 11.6046C3.25937 9.79761 3.42122 8.28017 4.34058 6.99043C4.44753 6.84039 4.56097 6.69509 4.68059 6.55494C5.70885 5.35023 7.14173 4.82518 8.94222 4.57652C10.7039 4.33322 13.0007 4.33323 15.9199 4.33325ZM6.78113 17.6666H25.2195C25.9041 14.9261 26.39 12.9374 26.5574 11.3896C26.7296 9.79767 26.5399 8.86452 26.0315 8.15132C25.9583 8.04866 25.8807 7.94925 25.7988 7.85336C25.2302 7.18718 24.371 6.77677 22.7848 6.55771C21.176 6.33552 19.0176 6.33325 16.0003 6.33325C12.983 6.33325 10.8247 6.33552 9.21584 6.55771C7.62969 6.77677 6.77042 7.18717 6.20181 7.85336C6.11997 7.94925 6.04235 8.04866 5.96917 8.15132C5.46079 8.86452 5.27104 9.79767 5.44322 11.3896C5.61063 12.9374 6.09657 14.9261 6.78113 17.6666ZM5.33366 19.6666C4.41318 19.6666 3.66699 20.4128 3.66699 21.3333C3.66699 22.2537 4.41318 22.9999 5.33366 22.9999H26.667C27.5875 22.9999 28.3337 22.2537 28.3337 21.3333C28.3337 20.4128 27.5875 19.6666 26.667 19.6666H5.33366Z" fill="currentColor" />
    </symbol>

    <symbol id="chef" width="100%" height="100%" viewBox="0 0 32 32">
      <path fill-rule="evenodd" clip-rule="evenodd" d="M9.6708 5.67405C10.7924 3.30609 13.2038 1.66675 16.0003 1.66675C18.7968 1.66675 21.2083 3.30609 22.3299 5.67405C22.4417 5.6692 22.5541 5.66675 22.667 5.66675C26.9012 5.66675 30.3337 9.09923 30.3337 13.3334C30.3337 16.2409 28.7154 18.7684 26.3337 20.0678L26.3337 24.0694C26.3337 25.2674 26.3337 26.2663 26.2271 27.0594C26.1146 27.8964 25.867 28.6522 25.2597 29.2595C24.6524 29.8668 23.8967 30.1143 23.0596 30.2269C22.2666 30.3335 21.2676 30.3335 20.0696 30.3334H11.931C10.733 30.3335 9.73406 30.3335 8.94102 30.2269C8.10396 30.1143 7.34823 29.8668 6.74093 29.2595C6.13364 28.6522 5.88608 27.8964 5.77354 27.0594C5.66692 26.2663 5.66695 25.2674 5.66699 24.0694L5.66699 20.0678C3.28527 18.7684 1.66699 16.2408 1.66699 13.3334C1.66699 9.09923 5.09948 5.66675 9.33366 5.66675C9.44657 5.66675 9.55897 5.6692 9.6708 5.67405ZM9.07049 7.67275C6.06304 7.81024 3.66699 10.292 3.66699 13.3334C3.66699 15.6556 5.06391 17.6537 7.06736 18.529C7.43159 18.6881 7.66699 19.0479 7.66699 19.4454V23.0001H24.3337L24.3337 19.4454C24.3337 19.0479 24.5691 18.6881 24.9333 18.529C26.9367 17.6537 28.3337 15.6556 28.3337 13.3334C28.3337 10.292 25.9376 7.81023 22.9302 7.67275C22.9764 7.99775 23.0003 8.32965 23.0003 8.66675V9.33342C23.0003 9.8857 22.5526 10.3334 22.0003 10.3334C21.448 10.3334 21.0003 9.8857 21.0003 9.33342V8.66675C21.0003 8.10294 20.9074 7.56291 20.7368 7.05989C20.0672 5.08544 18.1982 3.66675 16.0003 3.66675C13.8025 3.66675 11.9334 5.08544 11.2638 7.05989C11.0933 7.56291 11.0003 8.10294 11.0003 8.66675V9.33342C11.0003 9.8857 10.5526 10.3334 10.0003 10.3334C9.44804 10.3334 9.00033 9.8857 9.00033 9.33342V8.66675C9.00033 8.32965 9.02422 7.99775 9.07049 7.67275ZM24.3312 25.0001H7.66941C7.67505 25.7593 7.69377 26.3322 7.75571 26.7929C7.83843 27.4082 7.98139 27.6715 8.15515 27.8453C8.3289 28.019 8.59223 28.162 9.20751 28.2447C9.85156 28.3313 10.715 28.3334 12.0003 28.3334H20.0003C21.2857 28.3334 22.1491 28.3313 22.7931 28.2447C23.4084 28.162 23.6717 28.019 23.8455 27.8453C24.0193 27.6715 24.1622 27.4082 24.2449 26.7929C24.3069 26.3322 24.3256 25.7593 24.3312 25.0001ZM19.0061 11.5702C20.2504 12.0064 21.0003 13.2042 21.0003 14.6671C21.0003 15.6935 20.4121 16.6019 19.8338 17.2705C19.2294 17.9694 18.4815 18.5817 17.8681 19.0318C17.837 19.0546 17.8057 19.0777 17.7741 19.1011C17.3057 19.4474 16.7727 19.8415 16.0003 19.8415C15.2279 19.8415 14.6949 19.4474 14.2266 19.1011C14.195 19.0777 14.1636 19.0546 14.1326 19.0318C13.5192 18.5817 12.7712 17.9694 12.1669 17.2705C11.5886 16.6019 11.0003 15.6935 11.0003 14.6671C11.0003 13.2042 11.7503 12.0064 12.9945 11.5702C13.967 11.2293 15.0453 11.4218 16.0003 12.0505C16.9554 11.4218 18.0337 11.2293 19.0061 11.5702ZM18.3445 13.4576C18.0107 13.3406 17.3926 13.3779 16.6919 14.0489C16.3052 14.4191 15.6955 14.4191 15.3087 14.0489C14.608 13.3779 13.9899 13.3406 13.6562 13.4576C13.3504 13.5648 13.0003 13.899 13.0003 14.6671C13.0003 14.9532 13.1886 15.3945 13.6796 15.9623C14.1444 16.4998 14.7584 17.0104 15.3157 17.4193C15.6174 17.6406 15.7606 17.7427 15.8751 17.8031C15.9477 17.8414 15.9677 17.8415 16.0003 17.8415C16.0329 17.8415 16.053 17.8414 16.1255 17.8031C16.2401 17.7427 16.3833 17.6406 16.6849 17.4193C17.2422 17.0104 17.8562 16.4998 18.321 15.9623C18.812 15.3946 19.0003 14.9532 19.0003 14.6671C19.0003 13.899 18.6502 13.5648 18.3445 13.4576Z" fill="currentColor" />
    </symbol>

    <symbol id="wineglass" width="100%" height="100%" viewBox="0 0 32 32">
      <path fill-rule="evenodd" clip-rule="evenodd" d="M3.93049 8.51763C1.90765 6.44933 3.39401 3 6.26826 3H25.7324C28.6067 3 30.093 6.44932 28.0702 8.51763L17.0003 19.8363V27H21.6589C22.2111 27 22.6589 27.4477 22.6589 28C22.6589 28.5523 22.2111 29 21.6589 29H10.3418C9.78952 29 9.3418 28.5523 9.3418 28C9.3418 27.4477 9.78952 27 10.3418 27H15.0003V19.8363L3.93049 8.51763ZM16.0003 17.9984L19.9108 14H12.0899L16.0003 17.9984ZM10.1338 12H21.8668L26.6403 7.11922C27.4074 6.3349 26.8605 5 25.7324 5H6.26826C5.14022 5 4.59325 6.3349 5.36033 7.11922L10.1338 12Z" fill="currentColor" />
    </symbol>

    <symbol id="microphone" width="100%" height="100%" viewBox="0 0 32 32">
      <path fill-rule="evenodd" clip-rule="evenodd" d="M8.33301 10.6667C8.33301 6.43248 11.7655 3 15.9997 3C20.2339 3 23.6663 6.43248 23.6663 10.6667V14.6667C23.6663 18.9009 20.2339 22.3333 15.9997 22.3333C11.7655 22.3333 8.33301 18.9009 8.33301 14.6667V10.6667ZM10.421 9.66667H11.9997C12.552 9.66667 12.9997 10.1144 12.9997 10.6667C12.9997 11.219 12.552 11.6667 11.9997 11.6667H10.333V13.6667H11.9997C12.552 13.6667 12.9997 14.1144 12.9997 14.6667C12.9997 15.219 12.552 15.6667 11.9997 15.6667H10.421C10.8933 18.3193 13.2113 20.3333 15.9997 20.3333C18.7881 20.3333 21.1061 18.3193 21.5784 15.6667L17.9997 15.6667C17.4474 15.6667 16.9997 15.219 16.9997 14.6667C16.9997 14.1144 17.4474 13.6667 17.9997 13.6667L21.6663 13.6667V11.6667H17.9997C17.4474 11.6667 16.9997 11.219 16.9997 10.6667C16.9997 10.1144 17.4474 9.66667 17.9997 9.66667H21.5784C21.1061 7.01399 18.7881 5 15.9997 5C13.2113 5 10.8933 7.01399 10.421 9.66667ZM5.33301 12.3333C5.88529 12.3333 6.33301 12.781 6.33301 13.3333V14.6667C6.33301 20.0054 10.6609 24.3333 15.9997 24.3333C21.3384 24.3333 25.6663 20.0054 25.6663 14.6667V13.3333C25.6663 12.781 26.1141 12.3333 26.6663 12.3333C27.2186 12.3333 27.6663 12.781 27.6663 13.3333V14.6667C27.6663 20.7731 22.9749 25.7838 16.9997 26.2911V29.3333C16.9997 29.8856 16.552 30.3333 15.9997 30.3333C15.4474 30.3333 14.9997 29.8856 14.9997 29.3333V26.2911C9.02447 25.7838 4.33301 20.7731 4.33301 14.6667V13.3333C4.33301 12.781 4.78072 12.3333 5.33301 12.3333Z" fill="currentColor" />
    </symbol>

    <symbol id="vinyl" width="100%" height="100%" viewBox="0 0 32 32">
      <path fill-rule="evenodd" clip-rule="evenodd" d="M15.6621 2.6337C15.7167 3.18328 15.3154 3.67304 14.7658 3.7276C8.53443 4.34629 3.66699 9.60534 3.66699 16C3.66699 22.8115 9.18881 28.3333 16.0003 28.3333C22.395 28.3333 27.654 23.4659 28.2727 17.2345C28.3273 16.6849 28.817 16.2837 29.3666 16.3382C29.9162 16.3928 30.3175 16.8825 30.2629 17.4321C29.5437 24.6763 23.4333 30.3333 16.0003 30.3333C8.08424 30.3333 1.66699 23.9161 1.66699 16C1.66699 8.56706 7.32403 2.45663 14.5682 1.73739C15.1178 1.68282 15.6075 2.08411 15.6621 2.6337ZM19.4086 2.47057C19.6652 2.28217 19.9962 2.22724 20.3 2.32264C24.7587 3.72306 28.2769 7.2412 29.6773 11.7C29.8428 12.2269 29.5498 12.7882 29.0229 12.9537C28.496 13.1192 27.9347 12.8262 27.7692 12.2993C26.7044 8.9091 24.2133 6.14839 21.0003 4.72163V16C21.0003 18.7614 18.7617 21 16.0003 21C13.2389 21 11.0003 18.7614 11.0003 16C11.0003 13.2386 13.2389 11 16.0003 11C17.1259 11 18.1647 11.3719 19.0003 11.9996V3.27669C19.0003 2.95832 19.1519 2.65897 19.4086 2.47057ZM19.0003 16C19.0003 14.3431 17.6572 13 16.0003 13C14.3435 13 13.0003 14.3431 13.0003 16C13.0003 17.6568 14.3435 19 16.0003 19C17.6572 19 19.0003 17.6568 19.0003 16Z" fill="currentColor" />
    </symbol>

    <symbol id="stars" width="100%" height="100%" viewBox="0 0 32 32">
      <path fill-rule="evenodd" clip-rule="evenodd" d="M15.2505 3.83625C15.0707 4.04414 14.8429 4.3609 14.4944 4.85062L14.2918 5.13531C14.2768 5.15628 14.2614 5.17831 14.2453 5.20119C14.0771 5.44035 13.8433 5.77294 13.4898 5.98076C13.1367 6.18837 12.7324 6.23128 12.4413 6.26219C12.4134 6.26515 12.3866 6.268 12.3609 6.27087L12.013 6.30982C11.4179 6.37645 11.0303 6.42179 10.7607 6.47766C10.9053 6.72028 11.1408 7.0442 11.5058 7.54131L11.7153 7.82664L10.9092 8.41847L11.7153 7.82664C11.7307 7.84773 11.747 7.86959 11.7638 7.8922C11.9411 8.13104 12.1811 8.45437 12.2712 8.85023C12.3616 9.24783 12.2837 9.643 12.2266 9.93287C12.2212 9.96026 12.2159 9.98671 12.2111 10.0121L12.145 10.3572C12.0271 10.9725 11.9538 11.3659 11.9297 11.6453C12.2002 11.5866 12.5764 11.466 13.1634 11.2745L13.4955 11.1662C13.5199 11.1582 13.5454 11.1497 13.5718 11.141C13.8499 11.0485 14.234 10.9208 14.6414 10.9629C15.0463 11.0046 15.397 11.2063 15.6536 11.3538C15.678 11.3678 15.7016 11.3814 15.7243 11.3943L16.0313 11.5686C16.5566 11.8668 16.9013 12.0603 17.156 12.1755C17.178 11.898 17.1751 11.5046 17.1679 10.904L17.1636 10.5517C17.1633 10.5257 17.1628 10.4985 17.1623 10.4703C17.1571 10.1753 17.15 9.77015 17.31 9.39511C17.4709 9.01796 17.7697 8.74397 17.9853 8.54624C18.0058 8.52742 18.0256 8.50928 18.0444 8.49182L18.3003 8.25451C18.7495 7.83782 19.0364 7.56891 19.2189 7.36214C18.9616 7.24779 18.5807 7.12116 17.9845 6.92633L17.6498 6.81694C17.6251 6.80888 17.5994 6.80062 17.5728 6.79207C17.2907 6.70155 16.9076 6.57861 16.6035 6.30798C16.3002 6.03809 16.1328 5.67227 16.009 5.40172C15.9973 5.37614 15.986 5.35142 15.975 5.3277L15.8261 5.00675C15.5648 4.44342 15.394 4.07994 15.2505 3.83625ZM15.4546 3.63323C15.4546 3.63327 15.4537 3.63388 15.452 3.6349C15.4537 3.63369 15.4546 3.63318 15.4546 3.63323ZM15.0897 3.60389C15.0878 3.60225 15.0868 3.60129 15.0868 3.60122C15.0868 3.60115 15.0878 3.60197 15.0897 3.60389ZM19.458 7.49098C19.458 7.49099 19.457 7.49019 19.4552 7.48856C19.4572 7.49016 19.4581 7.49098 19.458 7.49098ZM19.3822 7.14755C19.3829 7.14572 19.3834 7.14477 19.3835 7.14476C19.3835 7.14474 19.3831 7.14565 19.3822 7.14755ZM17.1094 12.4741C17.1094 12.474 17.1098 12.4728 17.1108 12.4706C17.1099 12.473 17.1095 12.4741 17.1094 12.4741ZM17.436 12.2782C17.4385 12.2784 17.4398 12.2786 17.4398 12.2787L17.436 12.2782ZM11.6632 11.6825C11.6632 11.6825 11.6643 11.6825 11.6664 11.6828L11.6632 11.6825ZM11.9262 11.9102C11.9267 11.9125 11.9269 11.9137 11.9269 11.9138L11.9262 11.9102ZM10.6307 6.21616C10.6308 6.2162 10.6312 6.21752 10.6317 6.22003C10.6309 6.21738 10.6307 6.21613 10.6307 6.21616ZM10.4816 6.55705C10.4798 6.55811 10.4788 6.55861 10.4788 6.5586C10.4787 6.55858 10.4796 6.55805 10.4816 6.55705ZM13.9047 2.34486C14.2367 2.001 14.7487 1.60401 15.4648 1.67792C16.174 1.75111 16.5978 2.23712 16.8589 2.63592C17.1068 3.01454 17.3488 3.53628 17.6113 4.10232C17.621 4.12318 17.6307 4.1441 17.6404 4.16507L17.7893 4.48603C17.8311 4.57618 17.8634 4.64567 17.8922 4.70532C17.9128 4.74811 17.9288 4.77968 17.9415 4.80359C17.9662 4.81317 17.9987 4.825 18.0425 4.84006C18.1047 4.86148 18.1771 4.88515 18.2711 4.91589L18.6058 5.02527C18.6279 5.03247 18.6498 5.03965 18.6717 5.04681C19.2616 5.23948 19.8065 5.41748 20.211 5.61909C20.6397 5.8328 21.1673 6.19649 21.3248 6.88907C21.4835 7.58638 21.1596 8.14172 20.8602 8.51692C20.5797 8.86834 20.1618 9.2559 19.7119 9.6731C19.6948 9.68897 19.6776 9.70488 19.6604 9.72083L19.4046 9.95814C19.3326 10.0249 19.2775 10.076 19.2306 10.1209C19.2021 10.1483 19.1803 10.1698 19.1633 10.1871C19.1624 10.2124 19.1618 10.2447 19.1616 10.2866C19.1614 10.3524 19.1623 10.4286 19.1635 10.5275L19.1677 10.8798C19.168 10.9032 19.1683 10.9264 19.1686 10.9496C19.1762 11.57 19.1832 12.1437 19.1226 12.5904C19.0587 13.0612 18.8833 13.6883 18.2619 14.0536C17.6415 14.4184 17.0085 14.268 16.5657 14.0963C16.1449 13.9331 15.6454 13.6494 15.1045 13.3422C15.0844 13.3308 15.0642 13.3194 15.044 13.3079L14.7369 13.1336C14.6507 13.0846 14.5842 13.0469 14.5263 13.0152C14.4882 12.9944 14.4589 12.9789 14.4357 12.9673C14.412 12.9738 14.3818 12.9826 14.3429 12.9946C14.2807 13.0138 14.2091 13.0371 14.1158 13.0676L13.7837 13.1759C13.7614 13.1832 13.7393 13.1904 13.7171 13.1976C13.133 13.3883 12.5909 13.5652 12.1471 13.6398C11.6734 13.7193 11.0321 13.7327 10.4991 13.2585C9.96847 12.7862 9.90417 12.1493 9.92435 11.67C9.94334 11.219 10.0511 10.6568 10.1676 10.0491C10.172 10.0264 10.1763 10.0037 10.1807 9.98087L10.2468 9.63585L11.2289 9.82399L10.2468 9.63585C10.2654 9.53889 10.2796 9.46435 10.2909 9.39975C10.2987 9.3554 10.304 9.32196 10.3075 9.29612C10.2928 9.27355 10.2729 9.24457 10.2457 9.20627C10.2073 9.15224 10.162 9.09043 10.1031 9.01029L9.89363 8.72496L10.5954 8.20971L9.89363 8.72496C9.87994 8.70631 9.86628 8.68771 9.85265 8.66916C9.48316 8.16606 9.1426 7.70235 8.93045 7.30271C8.70731 6.88236 8.4847 6.27525 8.76521 5.61786C9.04818 4.95471 9.64576 4.70043 10.1067 4.57764C10.5411 4.46192 11.1089 4.39845 11.7207 4.33005C11.7439 4.32745 11.7672 4.32485 11.7905 4.32224L12.1384 4.28329C12.2361 4.27234 12.3112 4.26391 12.3759 4.25563C12.4141 4.25074 12.444 4.24647 12.4677 4.2427C12.4824 4.22394 12.5005 4.20011 12.5231 4.16943C12.5616 4.11704 12.6053 4.05567 12.6623 3.97563L12.8649 3.69095C12.8785 3.6718 12.8921 3.6527 12.9057 3.63364C13.2618 3.13305 13.5926 2.66814 13.9047 2.34486ZM30.1975 12.1627C30.4758 12.6398 30.3146 13.2521 29.8376 13.5304C22.2219 17.9728 20.3337 25.1451 20.3337 29.3333C20.3337 29.8856 19.886 30.3333 19.3337 30.3333C18.7814 30.3333 18.3337 29.8856 18.3337 29.3333C18.3337 24.6325 20.4455 16.6937 28.8298 11.8028C29.3069 11.5245 29.9192 11.6857 30.1975 12.1627ZM14.9415 15.0384C15.4726 15.1901 15.78 15.7436 15.6283 16.2747C15.1397 17.9848 15.0225 20.4662 15.0996 22.9522C15.176 25.4132 15.4385 27.7726 15.6552 29.1812C15.7391 29.7271 15.3647 30.2377 14.8189 30.3216C14.273 30.4056 13.7624 30.0312 13.6784 29.4853C13.4507 28.005 13.1798 25.5644 13.1006 23.0143C13.0222 20.4893 13.1272 17.7484 13.7053 15.7252C13.857 15.1942 14.4105 14.8867 14.9415 15.0384Z" fill="currentColor" />
      <path d="M6.6665 17.6902C6.6665 17.6902 7.53265 18.6873 8.29661 18.892C9.06057 19.0967 10.3092 18.6663 10.3092 18.6663C10.3092 18.6663 9.31213 19.5324 9.10743 20.2964C8.90272 21.0603 9.33316 22.309 9.33316 22.309C9.33316 22.309 8.46701 21.3119 7.70305 21.1072C6.93909 20.9025 5.69043 21.3329 5.69043 21.3329C5.69043 21.3329 6.68753 20.4668 6.89224 19.7028C7.09694 18.9389 6.6665 17.6902 6.6665 17.6902Z" fill="transparent" stroke="currentColor" stroke-linejoin="round" />
    </symbol>

    <symbol id="masks" width="100%" height="100%" viewBox="0 0 32 32">
      <path d="M8.00742 17.8239C8.04573 17.4292 8.35273 17.0229 8.85767 16.8876C9.36262 16.7523 9.8316 16.9506 10.0621 17.2733C10.3832 17.7227 11.0078 17.8267 11.4571 17.5056C11.9065 17.1846 12.0105 16.56 11.6895 16.1106C10.9555 15.0833 9.61887 14.6131 8.34004 14.9558C7.0612 15.2984 6.13877 16.374 6.01677 17.6306C5.96341 18.1803 6.36577 18.6692 6.91547 18.7226C7.46517 18.7759 7.95405 18.3736 8.00742 17.8239Z" fill="currentColor" />
      <path d="M15.7353 15.7529C15.7736 15.3582 16.0806 14.952 16.5855 14.8167C17.0905 14.6814 17.5595 14.8797 17.79 15.2023C18.1111 15.6517 18.7356 15.7557 19.185 15.4347C19.6344 15.1136 19.7384 14.489 19.4173 14.0397C18.6834 13.0124 17.3467 12.5421 16.0679 12.8848C14.7891 13.2275 13.8666 14.303 13.7446 15.5597C13.6913 16.1094 14.0936 16.5982 14.6433 16.6516C15.193 16.705 15.6819 16.3026 15.7353 15.7529Z" fill="currentColor" />
      <path d="M17.6012 21.6411L18.1972 20.8381C18.6406 21.1673 18.7333 21.7936 18.4042 22.2371C18.0781 22.6765 17.4602 22.7715 17.0175 22.4531L17.0046 22.4448C16.9855 22.4327 16.948 22.4102 16.8928 22.3818C16.7823 22.3249 16.6024 22.2453 16.3579 22.1789C15.8758 22.0479 15.1185 21.9613 14.1103 22.2314C13.102 22.5016 12.4895 22.9552 12.1375 23.3097C11.959 23.4895 11.8429 23.6484 11.7757 23.7529C11.7421 23.8051 11.7209 23.8434 11.7104 23.8633L11.7033 23.8771C11.4792 24.3742 10.8966 24.6008 10.3945 24.3833C9.88767 24.1638 9.65476 23.5751 9.87425 23.0683L10.7919 23.4657C9.87425 23.0683 9.87402 23.0688 9.87425 23.0683L9.87517 23.0661L9.87616 23.0639L9.87834 23.0589L9.88359 23.0473L9.89765 23.0171C9.90864 22.9941 9.92294 22.9653 9.94083 22.9313C9.97659 22.8634 10.0268 22.7747 10.0939 22.6705C10.2279 22.4622 10.4299 22.1909 10.7184 21.9004C11.3003 21.3144 12.2176 20.668 13.5926 20.2996C14.9676 19.9312 16.0852 20.0323 16.8822 20.2488C17.2772 20.3561 17.5879 20.4902 17.8081 20.6035C17.9182 20.6602 18.0061 20.7119 18.071 20.7528C18.1035 20.7733 18.1303 20.7911 18.1513 20.8056L18.1786 20.8246L18.189 20.8321L18.1933 20.8353L18.1953 20.8368L18.1972 20.8381C18.1976 20.8385 18.1972 20.8381 17.6012 21.6411Z" fill="currentColor" />
      <path fill-rule="evenodd" clip-rule="evenodd" d="M17.6703 3.00084L17.7255 3.02672C19.2824 3.75578 19.982 4.08124 20.7059 4.31104C20.9625 4.39248 21.2215 4.46503 21.4825 4.52858C22.2186 4.70779 22.979 4.7915 24.6762 4.9739L24.7368 4.98042C25.8144 5.0962 26.7105 5.19249 27.4163 5.35396C28.1549 5.52293 28.822 5.79079 29.3475 6.34346C29.653 6.66481 29.899 7.03892 30.0753 7.4471C30.375 8.14075 30.377 8.86569 30.267 9.63235C30.161 10.3719 29.9294 11.2754 29.6478 12.3742L28.5067 16.826C27.552 20.5509 25.1293 22.6205 22.6983 23.7447C21.731 25.844 20.2132 27.4527 18.9594 28.5229L18.931 28.5472C18.597 28.8324 18.2687 29.1127 17.8379 29.359C17.3903 29.6149 16.8723 29.8131 16.146 30.0166C15.4203 30.2199 14.8755 30.3194 14.3623 30.3319C13.8678 30.3439 13.4458 30.2721 13.0203 30.1997L12.9834 30.1934C9.88813 29.6674 4.96754 27.9084 3.49397 22.1593L2.35292 17.7075C2.07125 16.6087 1.83968 15.7053 1.73365 14.9657C1.62373 14.199 1.6257 13.4741 1.92534 12.7804C2.10167 12.3722 2.34768 11.9981 2.65322 11.6768C3.17868 11.1241 3.8458 10.8563 4.58439 10.6873C5.29019 10.5258 6.1863 10.4295 7.26386 10.3138L7.32453 10.3072C8.01644 10.2329 8.55266 10.1749 8.99501 10.1202L9.8286 6.86796C10.1101 5.76966 10.3417 4.86608 10.6037 4.16967C10.8747 3.4496 11.2261 2.81276 11.8305 2.3588C12.1847 2.09275 12.5838 1.89385 13.0092 1.77324C13.7428 1.56526 14.4556 1.68575 15.1723 1.92421C15.8601 2.15308 16.6814 2.53771 17.6703 3.00084ZM26.5693 16.3294C26.0199 18.4731 24.8887 19.9306 23.5526 20.9292C23.7515 19.6298 23.7102 18.2024 23.3133 16.6537L22.0719 11.811C22.2474 11.7429 22.4056 11.6247 22.5232 11.4601C22.7537 11.1375 23.2227 10.9392 23.7277 11.0745C24.2326 11.2098 24.5396 11.616 24.5779 12.0107C24.6313 12.5604 25.1202 12.9628 25.6699 12.9094C26.2196 12.856 26.6219 12.3672 26.5686 11.8175C26.4466 10.5608 25.5241 9.48528 24.2453 9.14262C23.2508 8.87615 22.2214 9.10126 21.4676 9.69766C21.4442 9.63107 21.4207 9.56618 21.3969 9.503C21.1259 8.78293 20.7746 8.1461 20.1702 7.69214C19.816 7.42608 19.4169 7.22718 18.9915 7.10658C18.2982 6.91004 17.6236 7.00681 16.9468 7.21927C16.809 7.16088 16.6657 7.11139 16.5174 7.07166C15.2386 6.729 13.902 7.19922 13.168 8.22651C13.0108 8.4465 12.9555 8.70846 12.9927 8.95625C12.2585 9.29162 11.7821 9.48967 11.2948 9.64437C11.2539 9.65736 11.2129 9.67013 11.1718 9.68267L11.7516 7.42051C12.0511 6.25228 12.2567 5.45585 12.4756 4.87412C12.69 4.30425 12.869 4.08008 13.0316 3.95796C13.1917 3.83775 13.369 3.75007 13.5547 3.69741C13.7326 3.64697 13.9936 3.63985 14.5408 3.82192C15.1041 4.00934 15.819 4.34233 16.8773 4.83795L16.9486 4.87132C18.4155 5.55828 19.2376 5.94332 20.1008 6.21731C20.4009 6.31255 20.7039 6.39744 21.0094 6.47182C21.8886 6.68588 22.7858 6.78228 24.3844 6.95406L24.4624 6.96245C25.6163 7.08646 26.3936 7.17166 26.9703 7.30359C27.5273 7.43104 27.7577 7.57398 27.898 7.72156C28.0389 7.86971 28.155 8.04509 28.2393 8.24022C28.3284 8.44638 28.3739 8.7443 28.2873 9.34852C28.1985 9.96743 27.9956 10.765 27.6962 11.9329L26.5693 16.3294ZM17.4599 9.15525C16.8966 9.34267 16.1817 9.67567 15.1233 10.1713L15.0521 10.2046C13.5852 10.8916 12.763 11.2767 11.8999 11.5506C11.5998 11.6459 11.2968 11.7308 10.9913 11.8052C10.112 12.0192 9.21488 12.1156 7.61632 12.2874L7.53825 12.2958C6.38443 12.4198 5.6071 12.505 5.03043 12.6369C4.47335 12.7644 4.24296 12.9073 4.10264 13.0549C3.96178 13.203 3.84565 13.3784 3.76136 13.5736C3.6723 13.7797 3.62678 14.0776 3.7134 14.6819C3.80214 15.3008 4.00512 16.0983 4.30448 17.2663L5.43134 21.6627C6.607 26.2496 10.4946 27.7418 13.3184 28.2217C13.7833 28.3007 14.0284 28.3394 14.3138 28.3324C14.5948 28.3256 14.9613 28.2715 15.6066 28.0907C16.2513 27.9101 16.596 27.7652 16.8454 27.6226C17.0995 27.4774 17.2963 27.3131 17.6609 27.0018C19.8862 25.1023 22.5559 21.7541 21.3759 17.1503L20.2491 12.7538C19.9496 11.5856 19.744 10.7892 19.5251 10.2074C19.3106 9.63758 19.1316 9.41341 18.9691 9.29129C18.809 9.17109 18.6317 9.0834 18.4459 9.03074C18.268 8.9803 18.0071 8.97318 17.4599 9.15525Z" fill="currentColor" />
    </symbol>

    <symbol id="album" width="100%" height="100%" viewBox="0 0 32 32">
      <path fill-rule="evenodd" clip-rule="evenodd" d="M11.5991 1.66676C11.6174 1.66676 11.6359 1.66677 11.6546 1.66677H20.345C20.3638 1.66677 20.3823 1.66676 20.4005 1.66676C20.6937 1.66668 20.9184 1.66662 21.1149 1.6877C22.9204 1.88147 24.3024 3.36415 24.3863 5.16019C26.0432 5.65489 27.2032 7.23328 27.1222 9.00979C27.6534 9.24946 28.1239 9.5801 28.5264 10.0398C29.3483 10.9785 29.5993 12.1273 29.6089 13.4676C29.6182 14.7631 29.3996 16.4021 29.1272 18.445L28.5746 22.5897C28.3616 24.1869 28.1893 25.4796 27.9214 26.4918C27.6425 27.5454 27.2307 28.4189 26.4581 29.0954C25.6855 29.7718 24.7652 30.0645 23.684 30.2017C22.6452 30.3335 21.3411 30.3335 19.7298 30.3334H12.27C10.6587 30.3335 9.35456 30.3335 8.31581 30.2017C7.23457 30.0645 6.31428 29.7718 5.54167 29.0954C4.76906 28.4189 4.35731 27.5454 4.07842 26.4918C3.81048 25.4795 3.63814 24.1869 3.42522 22.5897L2.87259 18.445C2.60017 16.4021 2.38161 14.7631 2.39091 13.4676C2.40053 12.1273 2.65149 10.9785 3.47337 10.0398C3.87585 9.5801 4.34634 9.24946 4.87759 9.00978C4.79662 7.23333 5.9565 5.65498 7.61338 5.16023C7.69723 3.36417 9.07921 1.88147 10.8848 1.6877C11.0812 1.66662 11.306 1.66668 11.5991 1.66676ZM9.64279 5.0001H22.3569C22.2148 4.30185 21.6351 3.75501 20.9015 3.67628C20.8264 3.66823 20.7195 3.66677 20.345 3.66677H11.6546C11.2802 3.66677 11.1732 3.66823 11.0982 3.67628C10.3646 3.75501 9.78481 4.30185 9.64279 5.0001ZM6.90777 8.49C8.16422 8.33338 9.75947 8.33341 11.7255 8.33343H20.2743C22.2403 8.33341 23.8356 8.33339 25.092 8.49C24.9292 7.6544 24.1936 7.0001 23.2824 7.0001H8.71734C7.80618 7.0001 7.07055 7.6544 6.90777 8.49ZM7.00658 10.4943C5.90739 10.6489 5.35143 10.9309 4.97814 11.3573C4.60485 11.7836 4.39883 12.372 4.39086 13.482C4.38269 14.6203 4.58024 16.1197 4.86543 18.2586L4.94105 18.8257L5.50294 18.4188C6.95291 17.3687 9.09527 17.4203 10.4742 18.5616L15.5917 22.7975C16.0754 23.1978 16.9088 23.2727 17.5103 22.9228L17.8661 22.7158C19.5677 21.726 21.8482 21.8304 23.4183 23.0001L26.1884 25.0636C26.3249 24.3226 26.4473 23.4115 26.601 22.2586L27.1344 18.2586C27.4195 16.1197 27.6171 14.6203 27.6089 13.482C27.601 12.372 27.3949 11.7836 27.0216 11.3573C26.6484 10.9309 26.0924 10.6489 24.9932 10.4943C23.8659 10.3358 22.3536 10.3334 20.1958 10.3334H11.804C9.64619 10.3334 8.13389 10.3358 7.00658 10.4943ZM25.5569 27.0871L22.2235 24.604C21.3134 23.9259 19.9002 23.8463 18.8717 24.4446L18.516 24.6516C17.2202 25.4053 15.4725 25.2951 14.3165 24.3382L9.19892 20.1023C8.53493 19.5527 7.40036 19.514 6.67607 20.0386L5.24131 21.0777L5.39876 22.2586C5.62275 23.9385 5.78015 25.1047 6.01183 25.98C6.23628 26.8279 6.50044 27.2766 6.85912 27.5906C7.2178 27.9046 7.69743 28.1072 8.56757 28.2176C9.46575 28.3316 10.6426 28.3334 12.3374 28.3334H19.6624C21.3572 28.3334 22.534 28.3316 23.4322 28.2176C24.3024 28.1072 24.782 27.9046 25.1407 27.5906C25.2956 27.455 25.4328 27.2942 25.5569 27.0871ZM21.9999 14.3334C21.4476 14.3334 20.9999 14.7811 20.9999 15.3334C20.9999 15.8857 21.4476 16.3334 21.9999 16.3334C22.5522 16.3334 22.9999 15.8857 22.9999 15.3334C22.9999 14.7811 22.5522 14.3334 21.9999 14.3334ZM18.9999 15.3334C18.9999 13.6766 20.343 12.3334 21.9999 12.3334C23.6567 12.3334 24.9999 13.6766 24.9999 15.3334C24.9999 16.9903 23.6567 18.3334 21.9999 18.3334C20.343 18.3334 18.9999 16.9903 18.9999 15.3334Z" fill="currentColor" />
    </symbol>

    <symbol id="cloud" width="100%" height="100%" viewBox="0 0 32 32">
      <path d="M21.73 20.77H7.41C6.35514 20.77 5.5 21.6252 5.5 22.68V24.59C5.5 25.6449 6.35514 26.5 7.41 26.5H21.73C22.7849 26.5 23.64 25.6449 23.64 24.59V22.68C23.64 21.6252 22.7849 20.77 21.73 20.77Z" fill="transparent" stroke="currentColor" stroke-width="2" stroke-miterlimit="10" />
      <path d="M24.5897 21.7299C25.6446 21.7299 26.4997 20.8748 26.4997 19.8199C26.4997 18.765 25.6446 17.9099 24.5897 17.9099C23.5348 17.9099 22.6797 18.765 22.6797 19.8199C22.6797 20.8748 23.5348 21.7299 24.5897 21.7299Z" fill="transparent" stroke="currentColor" stroke-width="2" stroke-miterlimit="10" />
      <path d="M25.5502 18.1701L24.7202 12.7001C24.4187 10.6983 23.4093 8.8709 21.8754 7.5498C20.3414 6.2287 18.3846 5.50145 16.3602 5.5001C14.3765 5.49041 12.4525 6.1781 10.9244 7.44299C9.3963 8.70789 8.36127 10.4695 8.0002 12.4201L6.4502 20.9401" fill="transparent" stroke="currentColor" stroke-width="2" stroke-miterlimit="10" />
      <path d="M19.8203 10.27L21.7303 20.77" fill="transparent" stroke="currentColor" stroke-width="2" stroke-miterlimit="10" />
    </symbol>

    <symbol id="bear" width="100%" height="100%" viewBox="0 0 32 32">
      <path d="M24.9081 4.00005C24.0885 4.00256 23.2817 4.20414 22.5572 4.58746C21.8327 4.97078 21.2122 5.52436 20.749 6.20059C17.7034 4.96347 14.2953 4.96347 11.2497 6.20059C10.8284 5.58706 10.2771 5.07384 9.63502 4.69735C8.99297 4.32087 8.27592 4.09035 7.53477 4.02218C6.79361 3.954 6.04654 4.04984 5.34659 4.30288C4.64664 4.55592 4.01098 4.95996 3.48475 5.48631C2.95851 6.01266 2.5546 6.64842 2.30169 7.34844C2.04879 8.04847 1.95309 8.79559 2.0214 9.53675C2.08971 10.2779 2.32034 10.995 2.69693 11.637C3.07352 12.279 3.58682 12.8302 4.2004 13.2515C3.58856 14.7599 3.27354 16.3722 3.27262 18C3.27262 24.608 8.71458 32 15.9994 32C23.2842 32 28.7261 24.608 28.7261 18C28.7252 16.3722 28.4102 14.7599 27.7983 13.2515C28.6924 12.638 29.3662 11.7541 29.721 10.7294C30.0757 9.70481 30.0926 8.59344 29.7693 7.55846C29.446 6.52349 28.7994 5.61943 27.9245 4.97898C27.0495 4.33854 25.9924 3.99544 24.9081 4.00005ZM5.39417 10.972C5.12781 10.7363 4.91444 10.4467 4.76812 10.1225C4.6218 9.79824 4.54586 9.44667 4.54529 9.09095C4.54529 8.41585 4.81346 7.76841 5.29081 7.29104C5.76815 6.81368 6.41557 6.5455 7.09064 6.5455C7.44635 6.54606 7.79791 6.62201 8.12213 6.76833C8.44636 6.91466 8.73589 7.12803 8.97166 7.3944C7.55816 8.34331 6.34304 9.55849 5.39417 10.972ZM15.9994 29.4546C10.1718 29.4546 5.81797 23.4078 5.81797 18C5.81797 15.2996 6.89065 12.7099 8.80003 10.8004C10.7094 8.89094 13.2991 7.81822 15.9994 7.81822C18.6996 7.81822 21.2893 8.89094 23.1987 10.8004C25.1081 12.7099 26.1808 15.2996 26.1808 18C26.1808 23.4078 21.827 29.4546 15.9994 29.4546ZM23.0271 7.3944C23.2628 7.12803 23.5524 6.91466 23.8766 6.76833C24.2008 6.62201 24.5524 6.54606 24.9081 6.5455C25.5832 6.5455 26.2306 6.81368 26.7079 7.29104C27.1853 7.76841 27.4535 8.41585 27.4535 9.09095C27.4529 9.44667 27.3769 9.79824 27.2306 10.1225C27.0843 10.4467 26.8709 10.7363 26.6046 10.972C25.653 9.56069 24.4384 8.34598 23.0271 7.3944ZM21.0901 22.4546C21.0901 23.7757 20.0261 26.2727 15.9994 26.2727C11.9726 26.2727 10.9087 23.7757 10.9087 22.4546C10.9087 22.117 11.0428 21.7933 11.2814 21.5546C11.5201 21.3159 11.8438 21.1818 12.1813 21.1818C12.5189 21.1818 12.8426 21.3159 13.0813 21.5546C13.3199 21.7933 13.454 22.117 13.454 22.4546C13.4642 22.5958 13.5927 23.2742 14.7267 23.5771V21.8831L12.9666 18.5422C12.8647 18.3647 12.8093 18.1644 12.8055 17.9598C12.8018 17.7551 12.8499 17.5529 12.9452 17.3718C13.0406 17.1907 13.1802 17.0367 13.351 16.924C13.5218 16.8113 13.7184 16.7437 13.9224 16.7273H18.0764C18.2804 16.7437 18.4769 16.8113 18.6477 16.924C18.8186 17.0367 18.9582 17.1907 19.0535 17.3718C19.1489 17.5529 19.1969 17.7551 19.1932 17.9598C19.1895 18.1644 19.1341 18.3647 19.0322 18.5422L17.272 21.8831V23.5771C18.406 23.2729 18.5345 22.5869 18.5447 22.4177C18.5695 22.0869 18.7189 21.7779 18.9627 21.553C19.2065 21.3281 19.5265 21.2041 19.8581 21.206C20.1861 21.2114 20.4988 21.3451 20.7292 21.5786C20.9595 21.8121 21.0891 22.1266 21.0901 22.4546Z" fill="currentColor" />
    </symbol>

    <symbol id="gift" width="100%" height="100%" viewBox="0 0 32 32">
      <path fill-rule="evenodd" clip-rule="evenodd" d="M15.9238 1.66675C12.846 1.66673 10.4339 1.66672 8.55193 1.91974C6.62562 2.17873 5.10559 2.71918 3.91251 3.91226C2.71943 5.10534 2.17897 6.62537 1.91999 8.55169C1.66696 10.4337 1.66698 12.8457 1.66699 15.9236V16.0766C1.66698 19.1544 1.66696 21.5665 1.91999 23.4485C2.17897 25.3748 2.71943 26.8948 3.91251 28.0879C5.10559 29.281 6.62562 29.8214 8.55193 30.0804C10.4339 30.3334 12.846 30.3334 15.9238 30.3334H16.0768C19.1547 30.3334 21.5667 30.3334 23.4487 30.0804C25.375 29.8214 26.8951 29.281 28.0881 28.0879C29.2812 26.8948 29.8217 25.3748 30.0807 23.4485C30.3337 21.5665 30.3337 19.1544 30.3337 16.0766V15.9236C30.3337 12.8457 30.3337 10.4337 30.0807 8.55169C29.8217 6.62537 29.2812 5.10534 28.0881 3.91226C26.8951 2.71918 25.375 2.17873 23.4487 1.91974C21.5667 1.66672 19.1547 1.66673 16.0769 1.66675H15.9238ZM15.0003 3.66712C12.342 3.66992 10.3639 3.69413 8.81843 3.90191C7.11389 4.13108 6.08626 4.56694 5.32672 5.32648C4.56718 6.08602 4.13132 7.11365 3.90215 8.81818C3.69437 10.3636 3.67017 12.3418 3.66736 15.0001H9.21867C8.75071 14.4156 8.40106 13.7261 8.2104 12.9634C7.49273 10.0928 10.093 7.49249 12.9637 8.21016C13.7263 8.40082 14.4158 8.75047 15.0003 9.21842V3.66712ZM3.66736 17.0001C3.67017 19.6584 3.69437 21.6365 3.90215 23.182C4.13132 24.8865 4.56718 25.9141 5.32672 26.6737C6.08626 27.4332 7.11389 27.8691 8.81843 28.0983C10.3639 28.306 12.342 28.3302 15.0003 28.333V18.8316C13.9608 20.9079 11.8137 22.3334 9.33366 22.3334C8.78137 22.3334 8.33366 21.8857 8.33366 21.3334C8.33366 20.7811 8.78137 20.3334 9.33366 20.3334C11.3827 20.3334 13.0996 18.9112 13.551 17.0001H13.3804L13.3682 17.0001H3.66736ZM17.0003 28.333C19.6586 28.3302 21.6368 28.306 23.1822 28.0983C24.8868 27.8691 25.9144 27.4332 26.6739 26.6737C27.4335 25.9141 27.8693 24.8865 28.0985 23.182C28.3063 21.6365 28.3305 19.6584 28.3333 17.0001H18.6325L18.6202 17.0001H18.4496C18.9011 18.9112 20.6179 20.3334 22.667 20.3334C23.2193 20.3334 23.667 20.7811 23.667 21.3334C23.667 21.8857 23.2193 22.3334 22.667 22.3334C20.1869 22.3334 18.0398 20.9079 17.0003 18.8316V28.333ZM28.3333 15.0001H22.782C23.25 14.4156 23.5996 13.7261 23.7903 12.9634C24.5079 10.0928 21.9077 7.49249 19.037 8.21016C18.2743 8.40082 17.5849 8.75047 17.0003 9.21843V3.66712C19.6586 3.66992 21.6368 3.69413 23.1822 3.90191C24.8868 4.13108 25.9144 4.56694 26.6739 5.32648C27.4335 6.08602 27.8693 7.11365 28.0985 8.81818C28.3063 10.3636 28.3305 12.3418 28.3333 15.0001ZM17.0003 15.0001L17.0003 13.3722C17.0039 11.8479 18.0426 10.5203 19.522 10.1504C20.928 9.79896 22.2015 11.0725 21.85 12.4784C21.4803 13.9573 20.1535 14.9957 18.6299 15.0001H17.0003ZM15.0003 13.3701C14.9957 11.8467 13.9574 10.5201 12.4786 10.1504C11.0727 9.79896 9.7992 11.0725 10.1507 12.4784C10.5204 13.9573 11.8472 14.9957 13.3707 15.0001H15.0003V13.3701Z" fill="currentColor" />
    </symbol>

    <symbol id="lines" width="100%" height="100%" viewBox="0 0 1858 1858">
      <path fill-rule="evenodd" clip-rule="evenodd" d="M1420.68 1474.29C1334.91 1521.59 1205.59 1481.24 1091.31 1478.01C974.079 1474.7 845.948 1563.14 743.588 1455.19C625.611 1330.76 782.869 1177.46 678.986 1043.16C546.883 872.378 207.619 883.197 159.574 700.188C116.557 536.335 421.509 634.373 568.43 622.044C641.676 615.898 723.758 648.228 798.948 646.534C882.782 644.646 941.581 597.51 1030.72 611.631C1190.85 636.997 1378.35 617.879 1512.25 759.531C1638.46 893.05 1607.18 1067.56 1589.81 1203.09C1574.42 1323.28 1517.05 1421.15 1420.68 1474.29Z" fill="transparent" stroke="currentColor" />
      <path fill-rule="evenodd" clip-rule="evenodd" d="M1378.02 1520.14C1292.25 1567.44 1162.93 1527.09 1048.65 1523.86C931.42 1520.55 803.289 1608.99 700.929 1501.04C582.952 1376.62 740.21 1223.31 636.327 1089.01C504.223 918.229 164.96 929.048 116.914 746.039C73.8977 582.186 378.85 680.224 525.771 667.895C599.017 661.749 681.099 694.079 756.289 692.385C840.123 690.497 898.922 643.361 988.06 657.482C1148.19 682.848 1335.69 663.73 1469.59 805.382C1595.8 938.901 1564.52 1113.42 1547.15 1248.94C1531.76 1369.13 1474.39 1467 1378.02 1520.14Z" fill="transparent" stroke="currentColor" />
      <path fill-rule="evenodd" clip-rule="evenodd" d="M1444.59 1450.38C1358.83 1497.68 1229.5 1457.32 1115.23 1454.1C997.991 1450.79 869.86 1539.23 767.499 1431.27C649.523 1306.85 806.781 1153.54 702.898 1019.25C570.794 848.466 231.531 859.285 183.485 676.276C140.469 512.423 445.421 610.462 592.342 598.132C665.588 591.986 747.67 624.316 822.86 622.622C906.694 620.734 965.493 573.598 1054.63 587.719C1214.76 613.085 1402.26 593.967 1536.16 735.619C1662.37 869.138 1631.09 1043.65 1613.73 1179.18C1598.33 1299.36 1540.96 1397.23 1444.59 1450.38Z" fill="transparent" stroke="currentColor" />
      <path fill-rule="evenodd" clip-rule="evenodd" d="M1432.64 1462.34C1346.87 1509.64 1217.55 1469.28 1103.27 1466.06C986.036 1462.75 857.905 1551.18 755.544 1443.23C637.567 1318.81 794.826 1165.5 690.942 1031.2C558.839 860.422 219.576 871.24 171.53 688.232C128.514 524.378 433.466 622.417 580.387 610.088C653.632 603.942 735.715 636.272 810.905 634.578C894.739 632.69 953.537 585.554 1042.68 599.675C1202.8 625.041 1390.3 605.922 1524.2 747.574C1650.42 881.094 1619.13 1055.61 1601.77 1191.14C1586.37 1311.32 1529 1409.19 1432.64 1462.34Z" fill="transparent" stroke="currentColor" />
    </symbol>

    <symbol id="success" width="100%" height="100%" viewBox="0 0 160 160">
      <path d="M60 80L73.3333 93.3333L100 66.6667M140 80C140 113.137 113.137 140 80 140C46.8629 140 20 113.137 20 80C20 46.8629 46.8629 20 80 20C113.137 20 140 46.8629 140 80Z" fill="transparent" stroke="currentColor" stroke-width="4" stroke-linecap="round" stroke-linejoin="round" />
    </symbol>

    <symbol id="error" width="100%" height="100%" viewBox="0 0 160 160">
      <circle cx="79.9997" cy="80.0002" r="66.6667" fill="transparent" stroke="currentColor" stroke-width="4" />
      <path d="M96.6662 63.3331L63.333 96.6663M63.3329 63.333L96.6661 96.6662" fill="transparent" stroke="currentColor" stroke-width="4" stroke-linecap="round" />
    </symbol>

  </defs>
</svg>