<?xml version="1.0" standalone="no"?>
<!DOCTYPE svg PUBLIC "-//W3C//DTD SVG 20010904//EN"
 "http://www.w3.org/TR/2001/REC-SVG-20010904/DTD/svg10.dtd">
<svg version="1.0" xmlns="http://www.w3.org/2000/svg"
 width="260.000000pt" height="260.000000pt" viewBox="0 0 260.000000 260.000000"
 preserveAspectRatio="xMidYMid meet">
<metadata>
Created by potrace 1.14, written by Peter Selinger 2001-2017
</metadata>
<g transform="translate(0.000000,260.000000) scale(0.100000,-0.100000)"
fill="#000000" stroke="none">
<path d="M1281 2236 c-15 -27 -5 -79 10 -55 8 12 11 12 19 -1 11 -17 11 -16
14 22 2 16 -4 34 -14 43 -15 14 -18 13 -29 -9z"/>
<path d="M1035 2178 c-57 -31 -71 -90 -30 -128 25 -23 37 -16 13 8 -7 7 -8 12
-2 12 6 0 16 -11 22 -25 6 -14 16 -25 21 -25 16 0 22 51 9 86 -9 27 -10 39 -1
53 18 29 3 39 -32 19z m-18 -90 c-3 -8 -6 -5 -6 6 -1 11 2 17 5 13 3 -3 4 -12
1 -19z"/>
<path d="M1530 2166 c5 -15 5 -38 -1 -61 -11 -40 -5 -85 12 -85 12 0 42 68 34
80 -3 5 -1 11 4 14 10 7 7 -47 -4 -64 -13 -20 15 -9 29 12 29 40 18 75 -34
111 -36 25 -52 22 -40 -7z"/>
<path d="M1206 2168 c-15 -8 -15 -11 4 -35 11 -14 20 -33 20 -43 0 -19 33 -53
43 -44 3 3 3 12 0 20 -3 8 -1 14 5 14 14 0 9 40 -8 67 -17 26 -41 34 -64 21z"/>
<path d="M1347 2164 c-15 -8 -28 -18 -28 -22 -7 -44 -6 -68 3 -85 11 -21 11
-21 29 2 11 13 19 32 19 42 0 10 9 27 21 38 20 18 20 20 2 29 -13 7 -26 6 -46
-4z"/>
<path d="M878 2154 c-3 -3 4 -16 16 -29 11 -13 27 -31 35 -41 14 -16 15 -16
22 2 12 29 10 41 -7 58 -15 16 -55 22 -66 10z"/>
<path d="M1650 2145 c-15 -18 -4 -76 13 -69 10 4 41 47 55 77 7 14 -56 7 -68
-8z"/>
<path d="M1165 2110 c4 -6 -9 -25 -28 -43 -38 -36 -54 -67 -34 -67 7 0 19 6
26 13 10 9 12 9 7 0 -5 -9 0 -10 22 -2 41 14 58 54 37 85 -15 23 -43 36 -30
14z m-4 -83 c-10 -9 -11 -8 -5 6 3 10 9 15 12 12 3 -3 0 -11 -7 -18z"/>
<path d="M1413 2112 c-6 -4 -14 -19 -18 -34 -6 -22 -2 -32 18 -50 25 -22 97
-34 97 -16 0 11 -42 54 -59 59 -6 2 -13 14 -14 27 -1 24 -5 26 -24 14z m32
-82 c10 -11 16 -20 13 -20 -3 0 -13 9 -23 20 -10 11 -16 20 -13 20 3 0 13 -9
23 -20z"/>
<path d="M846 2089 c-30 -44 -19 -83 33 -107 32 -16 95 -21 107 -9 3 3 -10 7
-28 11 -18 4 -44 16 -58 27 l-25 20 40 -20 c35 -18 84 -27 123 -22 23 2 -49
55 -77 56 -43 3 -65 13 -82 41 l-16 26 -17 -23z"/>
<path d="M1720 2085 c-7 -14 -26 -27 -44 -31 -17 -5 -34 -9 -38 -10 -5 -1 -14
-2 -22 -3 -7 0 -26 -11 -41 -23 -21 -16 -24 -23 -13 -29 15 -9 98 5 131 22 18
9 20 9 10 -1 -6 -7 -33 -18 -60 -25 l-48 -12 43 -4 c86 -9 146 43 122 105 -13
35 -25 38 -40 11z"/>
<path d="M710 1980 c-11 -11 -21 -24 -21 -30 -1 -5 -2 -16 -3 -22 -4 -24 6
-29 23 -14 9 8 28 17 43 20 14 2 36 10 48 16 l22 12 -21 15 c-35 24 -69 25
-91 3z"/>
<path d="M1818 1987 c-7 -8 -20 -16 -28 -19 -18 -6 39 -38 68 -38 11 0 25 -7
32 -15 17 -20 28 -11 23 19 -10 53 -65 83 -95 53z"/>
<path d="M1130 1964 c-98 -20 -179 -46 -191 -60 -20 -25 -15 -346 7 -443 20
-84 96 -190 184 -252 58 -42 157 -99 170 -99 8 0 47 21 89 47 188 117 262 222
277 392 7 79 4 312 -4 354 -3 13 -89 40 -197 62 -61 13 -270 12 -335 -1z m369
-48 c41 -9 86 -22 100 -29 l26 -12 2 -155 c3 -237 -21 -323 -115 -415 -58 -57
-62 -60 -117 -96 -102 -66 -86 -64 -167 -17 -40 24 -102 72 -138 108 -111 111
-131 201 -121 537 l1 42 68 20 c37 11 92 24 122 29 81 13 254 7 339 -12z"/>
<path d="M1247 1904 c-1 -1 -24 -5 -52 -8 -27 -3 -81 -14 -120 -23 l-70 -18 0
-145 c1 -176 8 -230 41 -295 22 -44 136 -165 156 -165 4 0 26 -13 50 -29 23
-16 49 -26 58 -23 31 11 135 87 176 128 54 54 81 107 97 192 13 66 16 326 5
337 -18 19 -327 63 -341 49z m156 -31 c6 -9 -209 -11 -218 -1 -3 3 43 6 104 7
60 1 111 -2 114 -6z m-228 -14 c4 -6 19 -10 33 -9 81 6 151 -1 147 -13 -3 -6
5 -17 17 -22 20 -9 25 -34 6 -27 -5 1 -8 -3 -8 -8 0 -5 6 -10 13 -11 10 0 10
-2 0 -6 -20 -8 -15 -23 8 -23 11 0 17 -4 14 -10 -3 -5 -1 -10 6 -10 7 0 4 -7
-7 -15 -14 -11 -15 -14 -4 -15 13 0 13 -1 0 -10 -13 -9 -13 -11 0 -20 11 -7
12 -10 2 -10 -8 0 -12 -9 -10 -22 2 -14 10 -22 18 -20 10 1 9 -3 -4 -13 -19
-15 -19 -15 5 -16 l24 -1 -25 -7 c-18 -5 -21 -9 -11 -15 11 -7 11 -10 0 -17
-12 -7 -12 -9 0 -9 11 0 11 -3 1 -15 -10 -13 -9 -15 11 -16 14 -1 18 -3 8 -6
-13 -3 -16 -19 -15 -91 1 -48 6 -90 11 -94 6 -5 5 -8 -3 -8 -7 0 -10 -4 -7
-10 3 -5 0 -10 -7 -10 -9 0 -13 19 -15 68 -1 49 -8 369 -8 372 0 1 -19 3 -43
7 -54 6 -115 -4 -106 -19 7 -10 6 -157 -1 -238 -2 -25 -5 -80 -7 -123 -2 -65
-4 -76 -14 -62 -7 9 -15 16 -18 16 -3 -1 -12 -1 -18 0 -10 0 -10 2 0 6 18 7
15 21 -5 19 -10 0 -18 3 -18 8 0 5 -11 13 -25 18 -20 7 -22 11 -10 18 13 8 12
10 -2 10 -21 0 -62 75 -54 96 3 9 1 12 -4 9 -6 -3 -10 2 -11 12 0 10 -3 27 -5
38 -11 44 -10 260 0 267 8 5 7 8 -1 8 -7 0 -10 7 -6 16 3 8 12 13 20 10 8 -3
11 -1 8 4 -6 10 13 13 68 13 15 -1 27 3 27 8 0 12 17 11 25 -2z m228 -16 c-7
-2 -19 -2 -25 0 -7 3 -2 5 12 5 14 0 19 -2 13 -5z m23 -26 c4 -4 -2 -7 -14 -7
-12 0 -22 4 -22 9 0 10 26 9 36 -2z m85 3 c21 -12 25 -50 7 -68 -19 -19 -56
-14 -68 9 -9 16 -8 26 5 45 17 27 27 29 56 14z m-160 -127 c0 -5 2 -44 4 -88
2 -44 6 -137 9 -208 l7 -128 -68 3 -67 3 1 50 c2 122 15 360 19 367 7 10 94
11 95 1z m96 -9 c-3 -3 -12 -4 -19 -1 -8 3 -5 6 6 6 11 1 17 -2 13 -5z m-20
-60 c-3 -3 -12 -4 -19 -1 -8 3 -5 6 6 6 11 1 17 -2 13 -5z m36 -161 c-7 -2
-21 -2 -30 0 -10 3 -4 5 12 5 17 0 24 -2 18 -5z m-118 -214 c3 -3 -17 -5 -45
-4 -27 1 -53 4 -56 8 -3 3 17 4 45 3 27 -1 52 -4 56 -7z"/>
<path d="M1076 1828 c3 -5 10 -6 15 -3 13 9 11 12 -6 12 -8 0 -12 -4 -9 -9z"/>
<path d="M1115 1830 c3 -5 8 -10 11 -10 2 0 4 5 4 10 0 6 -5 10 -11 10 -5 0
-7 -4 -4 -10z"/>
<path d="M1162 1834 c9 -8 67 -13 72 -6 3 4 -13 8 -35 9 -22 0 -39 -1 -37 -3z"/>
<path d="M1278 1826 c-22 -16 -23 -30 -3 -22 8 3 15 1 15 -4 0 -6 -9 -10 -20
-10 -15 0 -20 -7 -20 -25 0 -14 5 -25 10 -25 6 0 10 7 10 15 0 10 11 15 35 15
29 0 35 -4 35 -22 0 -12 3 -19 6 -16 10 11 11 43 1 56 -5 6 -6 12 -2 12 5 0 0
9 -10 20 -21 23 -33 24 -57 6z m52 -26 c0 -5 -8 -10 -17 -10 -15 0 -16 2 -3
10 19 12 20 12 20 0z"/>
<path d="M1168 1803 c7 -3 16 -2 19 1 4 3 -2 6 -13 5 -11 0 -14 -3 -6 -6z"/>
<path d="M1140 1779 c-27 -5 -21 -7 29 -8 35 0 61 2 58 6 -9 9 -44 10 -87 2z"/>
<path d="M1068 1773 c6 -2 18 -2 25 0 6 3 1 5 -13 5 -14 0 -19 -2 -12 -5z"/>
<path d="M1095 1751 c8 -7 135 -8 135 -1 0 4 -31 7 -70 7 -38 -1 -67 -3 -65
-6z"/>
<path d="M1075 1720 c4 -6 11 -8 16 -5 14 9 11 15 -7 15 -8 0 -12 -5 -9 -10z"/>
<path d="M1153 1723 c9 -2 25 -2 35 0 9 3 1 5 -18 5 -19 0 -27 -2 -17 -5z"/>
<path d="M1159 1699 c-10 -6 -4 -9 19 -9 17 0 32 2 32 4 0 9 -39 13 -51 5z"/>
<path d="M1190 1670 c0 -5 5 -10 10 -10 6 0 10 5 10 10 0 6 -4 10 -10 10 -5 0
-10 -4 -10 -10z"/>
<path d="M1113 1663 c15 -2 37 -2 50 0 12 2 0 4 -28 4 -27 0 -38 -2 -22 -4z"/>
<path d="M1150 1640 c0 -9 47 -7 56 2 3 4 -8 6 -25 6 -17 -1 -31 -4 -31 -8z"/>
<path d="M1073 1613 c9 -2 23 -2 30 0 6 3 -1 5 -18 5 -16 0 -22 -2 -12 -5z"/>
<path d="M1143 1613 c15 -2 39 -2 55 0 15 2 2 4 -28 4 -30 0 -43 -2 -27 -4z"/>
<path d="M1135 1590 c-3 -5 -1 -10 4 -10 6 0 11 5 11 10 0 6 -2 10 -4 10 -3 0
-8 -4 -11 -10z"/>
<path d="M1171 1590 c-9 -5 -4 -7 13 -7 29 0 32 2 13 10 -8 3 -20 2 -26 -3z"/>
<path d="M1170 1558 c0 -3 9 -6 20 -5 11 1 20 5 20 9 0 3 -9 6 -20 5 -11 -1
-20 -5 -20 -9z"/>
<path d="M1078 1533 c6 -2 18 -2 25 0 6 3 1 5 -13 5 -14 0 -19 -2 -12 -5z"/>
<path d="M1143 1533 c15 -2 37 -2 50 0 12 2 0 4 -28 4 -27 0 -38 -2 -22 -4z"/>
<path d="M1148 1503 c12 -2 32 -2 45 0 12 2 2 4 -23 4 -25 0 -35 -2 -22 -4z"/>
<path d="M1146 1481 c8 -8 64 -10 64 -2 0 4 -16 7 -35 7 -19 0 -32 -2 -29 -5z"/>
<path d="M1096 1451 c-5 -7 95 -4 102 4 2 2 -19 4 -47 3 -28 0 -53 -3 -55 -7z"/>
<path d="M1123 1423 c15 -2 39 -2 55 0 15 2 2 4 -28 4 -30 0 -43 -2 -27 -4z"/>
<path d="M1150 1400 c0 -5 5 -10 11 -10 5 0 7 5 4 10 -3 6 -8 10 -11 10 -2 0
-4 -4 -4 -10z"/>
<path d="M1180 1400 c0 -5 5 -10 11 -10 5 0 7 5 4 10 -3 6 -8 10 -11 10 -2 0
-4 -4 -4 -10z"/>
<path d="M1118 1393 c7 -3 16 -2 19 1 4 3 -2 6 -13 5 -11 0 -14 -3 -6 -6z"/>
<path d="M1130 1369 c0 -5 5 -7 10 -4 6 3 10 8 10 11 0 2 -4 4 -10 4 -5 0 -10
-5 -10 -11z"/>
<path d="M1165 1370 c3 -5 8 -10 11 -10 2 0 4 5 4 10 0 6 -5 10 -11 10 -5 0
-7 -4 -4 -10z"/>
<path d="M1158 1343 c7 -3 16 -2 19 1 4 3 -2 6 -13 5 -11 0 -14 -3 -6 -6z"/>
<path d="M1289 1648 c-6 -15 -4 -60 3 -64 4 -3 8 1 9 8 0 7 2 23 5 36 2 12 -1
22 -6 22 -6 0 -10 -1 -11 -2z"/>
<path d="M1285 1453 c0 -15 6 -28 12 -30 7 -3 9 4 6 17 -4 13 0 26 8 31 11 7
9 9 -7 9 -16 0 -21 -6 -19 -27z"/>
<path d="M1275 1371 c-3 -6 -1 -11 5 -11 6 0 9 -4 6 -9 -4 -5 3 -7 14 -4 12 3
19 11 17 17 -5 15 -34 20 -42 7z"/>
<path d="M1275 1311 c-3 -5 -2 -12 3 -15 5 -3 9 1 9 9 0 17 -3 19 -12 6z"/>
<path d="M817 1939 c-9 -5 -23 -22 -31 -37 -17 -35 -1 -98 32 -120 l24 -16
-16 38 c-8 20 -12 34 -7 32 5 -3 14 -18 20 -34 6 -15 20 -33 30 -39 16 -10 18
-8 16 26 -1 20 -10 49 -20 65 -10 15 -18 43 -17 62 1 36 -3 39 -31 23z"/>
<path d="M1750 1914 c0 -20 -8 -51 -19 -68 -10 -17 -19 -46 -19 -64 -1 -34 -1
-34 20 -15 11 10 27 32 34 48 10 24 13 26 14 10 0 -12 -5 -26 -12 -33 -6 -6
-9 -14 -6 -17 3 -3 17 7 31 21 36 36 37 95 2 129 -33 34 -45 31 -45 -11z"/>
<path d="M654 1853 c-18 -18 -18 -34 0 -27 7 3 29 -4 49 -16 21 -12 38 -17 41
-11 4 5 1 13 -5 17 -8 5 -8 9 1 14 9 6 6 12 -11 21 -33 19 -57 19 -75 2z"/>
<path d="M1892 1863 c-22 -4 -46 -45 -40 -65 2 -4 20 1 41 12 20 11 39 20 42
20 3 0 10 0 17 0 6 0 3 9 -7 20 -10 11 -21 19 -24 19 -3 -1 -16 -4 -29 -6z"/>
<path d="M707 1754 c-20 -7 -47 -20 -59 -28 l-21 -15 29 -10 c58 -21 78 -37
101 -81 27 -52 34 -59 87 -90 l38 -23 -7 34 c-11 52 -41 104 -76 133 -17 15
-30 29 -27 31 10 10 80 -60 94 -93 21 -48 30 -25 14 36 -22 88 -95 133 -173
106z"/>
<path d="M1816 1755 c-20 -7 -46 -21 -57 -31 -27 -24 -49 -79 -49 -118 l1 -31
19 35 c10 19 31 47 47 61 29 27 69 47 58 29 -3 -6 -11 -10 -16 -10 -12 0 -58
-53 -77 -88 -7 -14 -15 -41 -18 -59 -4 -27 -2 -32 10 -27 9 3 16 10 16 15 0 5
6 9 13 9 22 0 52 31 76 78 22 43 71 82 104 82 40 0 3 36 -59 57 -22 8 -40 7
-68 -2z"/>
<path d="M697 1593 c-3 -4 -3 -24 -2 -43 4 -41 33 -68 72 -64 39 3 41 4 18 15
-16 7 -13 8 12 5 18 -3 35 -1 38 4 7 11 -33 38 -64 43 -13 2 -34 14 -47 26
-12 12 -25 18 -27 14z"/>
<path d="M1877 1582 c-10 -10 -35 -24 -56 -31 -21 -6 -44 -18 -51 -26 -10 -12
-7 -17 16 -26 45 -17 57 -18 86 -1 28 16 44 63 30 88 -7 12 -11 12 -25 -4z"/>
<path d="M780 1448 c-27 -30 -25 -38 9 -38 16 0 41 -4 55 -10 14 -5 36 -6 48
-1 19 7 19 8 4 14 -10 4 -15 11 -11 16 8 13 -34 41 -62 41 -12 0 -31 -10 -43
-22z"/>
<path d="M1725 1450 c-18 -20 -18 -21 1 -15 10 4 6 -1 -10 -10 -21 -13 -25
-19 -16 -25 7 -5 23 -6 34 -3 12 3 41 8 64 12 l44 6 -22 28 c-26 33 -69 36
-95 7z"/>
<path d="M897 1364 c-15 -15 -28 -31 -28 -35 -6 -37 -22 -60 -48 -71 -25 -9
-25 -10 -7 -24 50 -36 122 1 133 70 4 28 3 37 -5 32 -7 -4 -12 -13 -12 -20 0
-7 -12 -23 -27 -37 l-27 -24 22 29 c21 27 40 92 30 102 -3 2 -17 -8 -31 -22z"/>
<path d="M1667 1377 c-3 -8 4 -36 17 -61 13 -25 20 -46 16 -46 -4 0 -15 16
-25 36 -20 43 -30 38 -21 -10 12 -62 84 -96 131 -62 18 13 18 14 -3 20 -20 7
-48 43 -45 57 1 4 -13 24 -31 45 -26 30 -34 34 -39 21z"/>
<path d="M775 1325 c-16 -8 -38 -11 -48 -9 -16 5 -17 3 -8 -15 25 -46 77 -47
103 -1 14 25 14 29 1 34 -8 3 -15 6 -16 5 -1 0 -15 -7 -32 -14z"/>
<path d="M1760 1333 c0 -3 8 -12 18 -20 9 -8 11 -11 4 -8 -11 6 -12 3 -3 -14
16 -30 62 -32 94 -3 13 12 14 17 5 23 -7 4 -16 6 -20 3 -4 -3 -18 1 -30 7 -25
13 -68 21 -68 12z"/>
<path d="M1019 1245 c-11 -10 7 -72 29 -99 12 -16 19 -39 18 -56 -4 -63 54
-20 61 45 6 48 -8 74 -52 97 -19 11 -19 10 -2 -15 27 -42 20 -43 -15 -3 -18
21 -36 35 -39 31z"/>
<path d="M1548 1222 c-14 -15 -29 -37 -33 -50 -4 -13 -9 -21 -12 -18 -3 2 2
19 11 37 22 44 20 56 -5 33 -48 -43 -54 -120 -12 -151 26 -19 33 -16 33 16 0
15 10 40 21 55 23 29 42 93 29 101 -4 2 -18 -8 -32 -23z"/>
<path d="M1623 1176 c3 -30 1 -43 -4 -35 -5 8 -9 23 -10 34 -1 16 -2 16 -8 -5
-11 -34 12 -76 45 -84 33 -9 51 6 29 24 -8 7 -15 25 -15 40 0 15 -9 38 -21 51
l-20 24 4 -49z"/>
<path d="M950 1191 c-5 -11 -10 -28 -10 -38 0 -11 -7 -28 -15 -39 -18 -24 -19
-34 0 -34 30 0 62 22 72 51 10 26 9 33 -7 49 -10 10 -16 21 -12 24 3 3 0 6 -6
6 -6 0 -16 -9 -22 -19z"/>
<path d="M1149 1116 c-5 -23 -4 -34 4 -56 5 -14 9 -40 8 -57 0 -35 12 -41 41
-20 28 22 31 59 7 92 -18 25 -20 27 -16 7 3 -12 1 -20 -4 -16 -5 3 -9 11 -9
18 0 14 -29 43 -31 32z m48 -88 c-3 -8 -6 -5 -6 6 -1 11 2 17 5 13 3 -3 4 -12
1 -19z"/>
<path d="M1421 1090 c-18 -28 -21 -30 -16 -10 6 22 5 23 -8 10 -8 -8 -18 -29
-22 -47 -5 -25 -2 -36 14 -52 28 -28 55 -28 48 0 -3 11 0 37 7 57 7 20 10 46
6 57 -6 18 -9 17 -29 -15z"/>
<path d="M1319 1044 c0 -5 -2 -25 -4 -44 -5 -43 14 -90 36 -90 25 0 29 11 14
41 -8 15 -15 36 -15 46 -1 19 -30 64 -31 47z"/>
<path d="M1255 1021 c-3 -11 -8 -29 -10 -41 -2 -12 -9 -28 -15 -36 -14 -16 -5
-34 19 -34 24 0 44 43 28 60 -9 10 -9 11 1 6 14 -8 17 20 2 29 -5 3 -7 12 -3
20 3 8 0 15 -5 15 -6 0 -13 -9 -17 -19z"/>
<path d="M653 794 c-5 -11 -22 -55 -38 -99 -15 -44 -37 -87 -48 -96 -20 -16
-19 -17 21 -17 39 -1 57 11 31 20 -9 3 -7 18 5 53 23 71 33 85 41 60 4 -11 15
-41 25 -67 16 -40 16 -48 4 -48 -7 0 -14 -5 -14 -10 0 -7 56 -10 163 -8 l162
3 3 35 4 35 -26 -28 c-19 -21 -34 -27 -66 -27 -41 0 -42 2 -42 45 0 14 0 29 1
33 1 8 23 8 64 3 4 -1 7 -9 7 -18 0 -9 3 -13 7 -10 9 10 11 87 1 87 -4 0 -8
-6 -8 -14 0 -17 -16 -24 -50 -22 -22 1 -25 6 -25 41 l0 39 43 1 c35 0 46 -5
59 -25 15 -23 17 -23 23 -5 14 40 3 45 -106 45 -67 0 -104 -4 -104 -11 0 -5 4
-8 9 -4 18 10 25 -20 26 -99 0 -70 -2 -79 -20 -86 -11 -4 -25 -5 -31 -3 -7 2
-29 46 -49 96 -44 108 -59 128 -72 101z"/>
<path d="M1427 758 c-13 -29 -34 -77 -47 -105 -13 -29 -29 -53 -36 -53 -14 0
-25 -48 -13 -56 4 -2 13 5 19 16 10 18 21 20 105 20 84 0 96 -2 107 -20 7 -11
16 -20 20 -20 5 0 8 9 8 20 0 16 7 20 34 20 19 0 36 6 39 13 13 33 70 99 76
89 12 -19 0 -82 -15 -82 -8 0 -14 -4 -14 -10 0 -5 25 -10 57 -10 54 0 55 1 40
18 -10 10 -17 35 -17 56 0 32 2 35 18 27 9 -5 28 -30 42 -55 23 -43 27 -46 65
-46 l40 0 -26 23 c-15 12 -41 43 -58 69 -26 39 -30 51 -21 68 15 29 47 43 54
25 8 -21 23 -19 36 5 9 17 7 22 -12 29 -32 12 -63 -5 -93 -50 -14 -22 -30 -39
-35 -39 -17 0 -11 62 8 76 15 12 9 13 -43 13 -50 0 -57 -2 -43 -12 19 -15 28
-69 12 -74 -6 -2 -23 15 -38 37 -15 23 -37 45 -49 49 -26 10 -57 -3 -57 -24 0
-23 20 -28 39 -11 17 16 20 15 45 -15 27 -31 27 -32 8 -53 -11 -11 -27 -35
-37 -53 -20 -34 -55 -55 -73 -44 -6 3 -23 35 -38 71 -28 65 -70 140 -79 140
-2 0 -15 -24 -28 -52z m60 -103 l21 -50 -55 -3 c-30 -2 -58 -1 -61 2 -3 3 8
36 23 72 31 74 30 74 72 -21z"/>
<path d="M2422 794 c-11 -8 -30 -30 -42 -49 -12 -19 -26 -35 -31 -35 -16 0
-10 62 9 76 15 12 8 13 -48 14 -60 0 -63 -1 -43 -15 20 -14 22 -24 21 -96 -1
-71 -3 -82 -19 -86 -10 -3 -16 -9 -13 -15 7 -11 104 -8 104 4 0 4 -4 8 -10 8
-5 0 -10 21 -10 46 0 40 2 45 15 34 8 -6 26 -32 40 -56 23 -39 30 -44 60 -44
37 0 47 15 17 24 -10 3 -26 21 -36 38 -11 18 -27 43 -38 54 -19 21 -19 22 8
53 24 29 28 30 43 17 22 -20 51 -4 35 20 -13 22 -38 25 -62 8z"/>
<path d="M110 789 c0 -5 5 -7 10 -4 15 9 19 -10 22 -98 3 -66 1 -78 -14 -83
-36 -11 -16 -24 36 -24 55 0 82 13 47 23 -16 4 -18 14 -17 83 0 44 5 85 9 92
12 18 66 5 88 -21 l18 -22 1 33 0 32 -100 0 c-64 0 -100 -4 -100 -11z"/>
<path d="M333 786 c15 -12 19 -29 20 -93 1 -79 -6 -108 -24 -98 -5 4 -9 1 -9
-4 0 -7 37 -11 104 -11 110 0 116 3 116 52 0 20 -2 19 -25 -6 -19 -20 -33 -26
-68 -26 -43 0 -44 1 -45 32 0 18 3 37 8 44 14 16 48 10 65 -12 13 -17 14 -15
15 30 0 44 -2 48 -13 31 -8 -10 -27 -19 -44 -21 -29 -3 -30 -2 -31 39 -2 45
-4 44 79 38 9 0 21 -11 26 -23 10 -21 12 -21 18 -5 17 40 1 47 -107 47 -90 -1
-101 -2 -85 -14z"/>
<path d="M1053 786 c24 -19 26 -186 1 -186 -8 0 -12 -4 -9 -10 3 -5 26 -10 50
-10 24 0 47 5 50 10 3 6 -1 10 -9 10 -20 0 -23 79 -3 81 88 8 106 1 102 -41
-1 -17 -11 -37 -21 -44 -16 -12 -11 -14 39 -15 53 0 74 10 44 22 -19 7 -17
157 2 180 12 16 8 17 -45 17 -57 0 -58 -1 -38 -18 17 -15 21 -32 15 -70 0 -4
-26 -8 -56 -8 l-56 0 3 41 c2 25 8 39 16 38 6 -2 12 2 12 7 0 6 -26 10 -57 10
-50 -1 -56 -2 -40 -14z"/>
<path d="M1973 786 c15 -12 18 -27 16 -97 -1 -64 -6 -87 -18 -96 -13 -10 -6
-12 44 -12 52 0 58 1 43 13 -10 7 -18 17 -18 22 1 10 96 114 105 114 3 0 5
-29 5 -65 0 -51 -3 -65 -15 -65 -8 0 -15 -4 -15 -8 0 -4 25 -9 55 -10 31 -1
55 3 55 8 0 6 -6 10 -14 10 -10 0 -14 21 -14 87 -1 70 2 89 16 99 15 11 8 13
-42 14 -54 0 -58 -1 -40 -14 18 -14 18 -16 -12 -48 -18 -18 -43 -46 -58 -62
l-26 -29 -1 29 c-3 76 0 99 17 111 15 11 9 13 -42 13 -52 -1 -57 -2 -41 -14z"/>
<path d="M708 431 c14 -9 19 -61 8 -80 -4 -7 0 -11 11 -11 15 0 18 7 15 45 -4
39 -1 45 15 45 25 0 43 -19 43 -47 0 -12 9 -27 19 -33 29 -15 36 -12 18 8 -20
22 -16 50 8 68 16 12 16 14 3 14 -9 0 -24 -7 -32 -16 -15 -14 -17 -14 -22 0
-4 11 -19 16 -53 16 -28 0 -41 -3 -33 -9z"/>
<path d="M876 413 c3 -17 1 -40 -5 -52 -14 -25 1 -28 20 -5 21 25 20 50 -1 69
-20 18 -20 18 -14 -12z"/>
<path d="M946 413 c-19 -38 -20 -43 -5 -43 5 0 8 4 4 9 -3 5 -1 12 4 15 5 3
14 -8 20 -24 5 -17 17 -30 26 -30 11 0 13 5 6 18 -5 9 -15 33 -23 52 l-15 35
-17 -32z"/>
<path d="M1025 390 c0 -47 2 -50 26 -50 14 0 33 6 43 13 17 13 17 14 1 30 -9
9 -23 17 -32 17 -10 0 -14 6 -10 20 4 14 0 20 -11 20 -14 0 -17 -10 -17 -50z
m53 -23 c2 -10 -3 -17 -12 -17 -10 0 -16 9 -16 21 0 24 23 21 28 -4z"/>
<path d="M1160 428 c0 -4 -6 -8 -14 -8 -8 0 -18 -5 -21 -10 -11 -18 6 -50 26
-50 11 0 17 -4 14 -10 -3 -5 2 -10 12 -10 16 0 18 6 15 35 -2 19 0 35 6 35 15
0 22 -26 9 -39 -8 -8 -7 -11 5 -11 9 0 18 7 22 15 8 23 -4 45 -26 45 -10 0
-17 4 -13 9 3 6 -4 9 -15 8 -11 -1 -20 -5 -20 -9z m10 -32 c0 -17 -14 -29 -23
-20 -8 8 3 34 14 34 5 0 9 -6 9 -14z"/>
<path d="M1298 390 c-2 -41 0 -50 13 -50 13 0 15 9 14 45 -2 33 1 45 11 45 17
0 19 -27 2 -32 -7 -3 -5 -7 5 -11 11 -4 20 -1 23 8 10 26 -4 45 -35 45 -28 0
-29 -2 -33 -50z"/>
<path d="M1385 432 c11 -8 13 -61 3 -77 -4 -6 2 -11 13 -11 16 0 19 7 18 46
-2 39 -5 46 -23 48 -11 0 -16 -2 -11 -6z"/>
<path d="M1430 436 c0 -2 9 -6 20 -9 11 -3 20 -1 20 4 0 5 -9 9 -20 9 -11 0
-20 -2 -20 -4z"/>
<path d="M1495 430 c-4 -7 2 -9 19 -4 20 5 26 2 26 -9 0 -9 -8 -18 -17 -20
-17 -4 -17 -5 0 -6 10 -1 17 -9 17 -21 0 -22 -7 -24 -42 -12 -14 5 -32 4 -45
-3 -20 -10 -15 -12 37 -12 61 -1 89 14 74 39 -5 7 -8 22 -9 33 0 14 -8 21 -27
23 -14 2 -29 -2 -33 -8z"/>
<path d="M1598 429 c-22 -13 -23 -52 -2 -73 24 -24 34 -19 20 10 -17 32 -9 64
15 64 26 0 35 -26 21 -62 -13 -36 7 -34 25 3 23 45 -33 86 -79 58z"/>
<path d="M1708 390 c5 -67 27 -67 27 0 1 38 -3 50 -15 50 -12 0 -14 -10 -12
-50z"/>
<path d="M1753 411 c0 -21 4 -28 14 -24 16 6 14 45 -3 50 -6 2 -11 -9 -11 -26z"/>
<path d="M1790 430 c0 -5 5 -10 10 -10 6 0 10 5 10 10 0 6 -4 10 -10 10 -5 0
-10 -4 -10 -10z"/>
<path d="M1825 388 c0 -37 3 -48 15 -48 12 0 14 10 11 46 -3 44 -2 46 19 39
15 -5 20 -4 16 4 -4 6 -19 10 -34 9 -25 -2 -27 -5 -27 -50z"/>
<path d="M1442 401 c-11 -6 -10 -10 0 -19 11 -8 14 -7 14 9 0 10 0 19 -1 19 0
0 -6 -4 -13 -9z"/>
<path d="M925 350 c3 -5 8 -10 11 -10 2 0 4 5 4 10 0 6 -5 10 -11 10 -5 0 -7
-4 -4 -10z"/>
</g>
</svg>
